<svg width="238" height="216" viewBox="0 0 238 216" fill="none" xmlns="http://www.w3.org/2000/svg">
<path d="M167.592 97.3357C171.619 96.6184 175.41 95.066 179.243 93.7796C189.639 90.3225 200.035 86.8653 210.406 83.3576C214.996 81.8115 219.386 82.055 223.453 84.7234C227.941 87.6546 228.616 92.7217 225.11 96.7701C222.823 99.4009 219.921 101.2 216.735 102.443C208.695 105.526 200.486 108.217 192.537 111.541C177.029 118.019 164.173 127.888 153.78 141.084C149.562 146.419 145.14 151.603 140.002 156.134C132.8 162.482 124.7 166.136 114.83 165.633C108.981 165.337 104.008 168.193 99.149 171.085C95.7921 173.116 92.3847 175.173 89.2845 177.582C83.7903 181.912 78.3841 181.423 72.7522 178.121C69.0317 175.944 65.6503 173.372 62.5072 170.455C56.8723 165.213 50.9365 160.378 45.1511 155.34C41.3069 151.985 37.7906 148.399 34.9155 144.136C31.8879 139.823 31.8902 135.397 33.805 130.664C35.0237 127.687 36.4971 124.834 38.0344 122.045C41.6091 115.574 42.5539 108.503 41.5203 101.422C40.1332 91.4021 43.309 82.6517 47.589 74.0064C50.5833 67.8952 53.6538 61.8086 54.8923 55.0014C55.6091 51.1024 55.2361 47.3136 54.2796 43.5042C52.7851 37.4546 50.2535 31.743 48.1393 25.9139C47.3353 23.7138 46.6705 21.4746 46.2841 19.157C45.3225 13.1537 47.6311 8.50635 52.5376 5.20762C57.1667 2.11403 61.9183 3.19166 66.0511 6.17649C81.4095 17.3137 89.6191 32.034 88.0003 51.4497C87.7125 55.0662 86.9545 58.5724 86.1842 62.1168C86.013 62.9044 85.8037 63.6797 85.9624 64.49C83.8715 66.2569 83.2075 68.8239 82.4155 71.2652C79.6191 79.8858 82.3002 86.8263 90.398 90.8443C94.4598 92.8786 98.4309 94.6727 101.541 98.2111C107.531 105.087 111.006 112.959 111.878 121.969C112.291 126.024 112.07 130.083 111.646 134.12C111.504 135.338 111.731 136.719 113.204 136.986C114.677 137.253 115.009 135.969 115.368 134.863C116.986 129.486 116.473 124.05 115.744 118.628C115.177 114.397 113.978 110.298 112.171 106.381C111.977 105.939 111.603 105.143 112.555 105.325C114.511 105.665 116.486 105.294 118.553 105.29C116.655 108.932 115.606 112.554 116.716 116.54C118.322 122.247 126.183 126.736 132.314 125.9C136.722 125.306 140.036 122.629 143.018 119.676C146.843 115.942 150.31 111.881 154.033 108.072C158.032 103.931 162.428 100.129 167.592 97.3357Z" fill="#FAC036"/>
<path d="M129.714 53.7258C130.83 53.666 131.458 52.9001 132.188 52.2094C135.523 49.0755 139.349 47.0283 144.086 47.8904C148.633 48.6907 152.14 51.1353 153.887 55.4963C155.557 59.7058 154.586 63.6068 151.926 67.1284C151.349 67.8685 150.606 68.4706 150.461 69.4355C149.625 69.5437 149.212 70.1684 148.734 70.7303C145.33 74.727 141.951 78.7743 138.509 82.7587C134.652 87.241 131.14 92.0883 126.861 96.1809C122.457 100.401 117.665 102.177 112.62 99.276C107.638 96.4375 106.061 94.2817 107.087 89.4291C107.526 87.2951 108.652 85.3838 109.88 83.5477C115.543 74.9294 121.486 66.4863 127.39 58.0308C128.306 56.768 129.844 55.665 129.714 53.7258Z" fill="#FAC036"/>
<path d="M86.9536 64.8117C87.5856 64.553 87.9877 64.0932 88.3506 63.4943C94.3183 53.4151 102.112 44.8556 110.787 37.088C117.862 30.7409 124.488 34.6186 128.436 39.8623C130.91 43.1522 130.457 46.7573 128.723 50.2841C128.361 51.0099 127.859 51.648 127.726 52.448C127.374 52.7552 126.919 52.9871 126.681 53.3315C123.784 57.3241 120.924 61.3292 118.053 65.3724C113.991 71.1372 110.363 77.2536 104.832 81.8255C102.464 83.7975 99.8918 85.6191 96.7031 84.9219C90.9989 83.6618 84.3126 76.9819 86.6286 68.5427C86.9865 67.3097 87.3443 66.0767 86.9536 64.8117Z" fill="#FAC036"/>
<path d="M86.9545 64.8123C87.3451 66.0773 86.9873 67.3102 86.6419 68.5051C84.3259 76.9443 91.0503 83.6365 96.7163 84.8843C99.905 85.5814 102.477 83.7599 104.846 81.7879C110.35 77.1654 114.004 71.0996 118.066 65.3348C120.887 61.3173 123.797 57.2865 126.694 53.2938C126.945 52.9114 127.387 52.7176 127.739 52.4104C128.302 53.0146 128.853 53.6569 129.716 53.726C129.845 55.6652 128.32 56.7301 127.379 58.0692C121.475 66.5247 115.532 74.9678 109.869 83.5861C108.679 85.4345 107.553 87.3458 107.076 89.4675C106.05 94.3201 107.627 96.4759 112.609 99.3144C117.666 102.178 122.408 100.427 126.85 96.2193C131.129 92.1267 134.641 87.2794 138.498 82.7971C141.94 78.8127 145.281 74.7531 148.723 70.7687C149.188 70.245 149.614 69.5821 150.45 69.4739C150.64 70.9688 151.636 71.7977 152.909 72.4215C152.652 73.603 151.552 74.005 150.797 74.7719C143.74 81.8417 137.258 89.4776 130.916 97.201C128.417 100.227 125.752 103.114 123.827 106.579C121.876 109.993 122.471 114.529 125.178 116.84C129.059 120.081 133.374 120.426 137.897 118.437C141.499 116.823 143.984 113.708 146.778 111.073C152.391 105.727 157.838 100.243 163.349 94.8215C163.777 94.4122 164.089 93.839 164.826 94.036C165.131 95.6948 166.204 96.6753 167.605 97.4249C162.428 100.13 158.033 103.932 153.983 108.098C150.26 111.908 146.754 115.956 142.968 119.702C139.948 122.643 136.685 125.295 132.264 125.926C126.133 126.762 118.26 122.311 116.666 116.566C115.556 112.581 116.605 108.958 118.503 105.316C116.436 105.32 114.461 105.691 112.505 105.352C111.591 105.181 111.927 105.965 112.12 106.407C113.889 110.312 115.127 114.423 115.694 118.654C116.423 124.076 116.936 129.512 115.318 134.889C114.997 136.008 114.627 137.279 113.154 137.012C111.68 136.745 111.48 135.415 111.596 134.146C112.02 130.11 112.241 126.05 111.828 121.995C110.918 112.973 107.481 105.113 101.491 98.2374C98.3931 94.6609 94.422 92.8668 90.3478 90.8706C82.25 86.8526 79.6071 79.9244 82.3654 71.2915C83.1573 68.8502 83.8595 66.2956 85.9122 64.5163C86.2679 64.5895 86.6112 64.7009 86.9545 64.8123Z" fill="#E48D16"/>
<path d="M164.812 93.947C164.075 93.75 163.75 94.3614 163.335 94.7325C157.824 100.154 152.377 105.638 146.765 110.984C143.97 113.619 141.485 116.734 137.884 118.348C133.385 120.388 129.071 120.042 125.164 116.751C122.444 114.478 121.85 109.943 123.813 106.49C125.776 103.038 128.441 100.15 130.902 97.112C137.244 89.3886 143.688 81.7404 150.783 74.6829C151.526 73.9541 152.6 73.5016 152.895 72.3325C154.615 71.8367 156.129 70.81 157.927 70.4658C162.283 69.6444 165.832 71.0487 168.573 74.4252C171.366 77.9028 171.283 81.7967 169.793 85.7399C168.936 87.9915 167.647 90.0182 166.012 91.8068C165.447 92.5089 164.958 93.1088 164.812 93.947Z" fill="#FAC036"/>
</svg>
