<svg width="18" height="15" viewBox="0 0 18 15" fill="none" xmlns="http://www.w3.org/2000/svg">
<path d="M17.9657 1.78662C17.292 2.09028 16.5784 2.29082 15.8479 2.38182C16.618 1.90791 17.1945 1.16395 17.4707 0.287685C16.7423 0.720815 15.9495 1.02846 15.1239 1.19835C14.5688 0.590159 13.8334 0.186827 13.0318 0.0509332C12.2302 -0.084961 11.4073 0.05418 10.6908 0.446769C9.9742 0.839357 9.40404 1.46344 9.06873 2.2222C8.73343 2.98096 8.65173 3.83197 8.83631 4.6432C5.769 4.49613 3.04988 2.98508 1.23131 0.702358C0.900268 1.2796 0.72713 1.93768 0.730125 2.60732C0.729674 3.22983 0.879156 3.84282 1.1653 4.39186C1.45144 4.94089 1.86538 5.40899 2.37037 5.75457C1.78516 5.73644 1.2127 5.57486 0.700875 5.28338V5.32894C0.700696 6.20271 0.995181 7.04967 1.53442 7.72627C2.07366 8.40287 2.82447 8.86749 3.65963 9.0414C3.34327 9.12806 3.01732 9.17245 2.68988 9.17347C2.45306 9.17347 2.22694 9.14982 2.00138 9.10714C2.23905 9.85905 2.69944 10.5163 3.31847 10.9873C3.93751 11.4584 4.68438 11.7199 5.45512 11.7353C4.14923 12.7839 2.53788 13.3528 0.879187 13.3508C0.585397 13.352 0.291803 13.335 0 13.3C1.69205 14.4117 3.65983 15.0018 5.66944 15.0002C12.4571 15.0002 16.1663 9.23576 16.1663 4.24352C16.1663 4.08434 16.1662 3.92228 16.1544 3.75964C16.88 3.22647 17.5053 2.56288 18 1.80104L17.9657 1.78662Z" fill="white"/>
</svg>
