<svg width="23" height="17" viewBox="0 0 23 17" fill="none" xmlns="http://www.w3.org/2000/svg">
<path d="M19.471 1.41044C17.9796 0.746763 16.4059 0.273083 14.7891 0.00121237C14.7744 -0.00117976 14.7594 0.000886238 14.746 0.00712637C14.7326 0.0133665 14.7216 0.0234743 14.7143 0.0360598C14.5117 0.384534 14.2874 0.840339 14.1307 1.19718C12.3879 0.940712 10.6152 0.940712 8.8724 1.19718C8.69762 0.799665 8.49989 0.412012 8.28016 0.0360598C8.27278 0.0236121 8.26169 0.0136208 8.24835 0.00740071C8.23501 0.00118063 8.22004 -0.000976719 8.20541 0.00121237C6.58824 0.271629 5.01419 0.745554 3.52352 1.41044C3.51076 1.41516 3.50009 1.42403 3.49333 1.43553C0.511988 5.75522 -0.305942 9.96898 0.0951168 14.1298C0.0965543 14.1493 0.109492 14.1688 0.125304 14.1813C1.86139 15.4283 3.80324 16.3804 5.86806 16.997C5.88263 17.0015 5.8983 17.0013 5.91278 16.9965C5.92725 16.9918 5.93979 16.9827 5.94856 16.9705C6.3913 16.3851 6.78517 15.7676 7.12442 15.118C7.13149 15.1047 7.13391 15.0894 7.13132 15.0746C7.12873 15.0598 7.12127 15.0462 7.11004 15.0358C7.10261 15.029 7.0938 15.0238 7.08417 15.0205C6.46484 14.7897 5.86503 14.5124 5.29019 14.1911C5.27413 14.1823 5.26219 14.1678 5.25684 14.1507C5.25149 14.1335 5.25313 14.1151 5.26144 14.0991C5.26633 14.0887 5.27372 14.0796 5.283 14.0726C5.40375 13.9848 5.5245 13.8928 5.6395 13.8008C5.64966 13.7929 5.66184 13.7878 5.67476 13.7861C5.68767 13.7844 5.70082 13.7861 5.71281 13.791C9.47758 15.4582 13.5529 15.4582 17.2716 13.791C17.284 13.7858 17.2977 13.784 17.3111 13.7857C17.3245 13.7874 17.3372 13.7926 17.3478 13.8008C17.4628 13.8928 17.5836 13.9848 17.7043 14.0726C17.7141 14.0795 17.722 14.0887 17.7272 14.0993C17.7324 14.1099 17.7349 14.1216 17.7343 14.1334C17.7337 14.1451 17.7302 14.1565 17.7239 14.1666C17.7177 14.1767 17.709 14.1851 17.6986 14.1911C17.125 14.5153 16.5244 14.7923 15.9031 15.0191C15.8932 15.0226 15.8842 15.0281 15.8768 15.0353C15.8693 15.0426 15.8636 15.0513 15.86 15.0609C15.8567 15.0702 15.8554 15.0801 15.8561 15.0899C15.8568 15.0997 15.8596 15.1093 15.8643 15.118C16.2093 15.7662 16.6046 16.3851 17.0388 16.9705C17.0475 16.9827 17.0601 16.9918 17.0745 16.9965C17.089 17.0013 17.1047 17.0015 17.1193 16.997C19.1875 16.3823 21.1325 15.4301 22.8706 14.1813C22.8793 14.1755 22.8866 14.1678 22.8918 14.1589C22.897 14.15 22.9001 14.14 22.9008 14.1298C23.3809 9.31942 22.0973 5.14052 19.4997 1.43693C19.4971 1.43081 19.4932 1.42529 19.4882 1.42073C19.4833 1.41617 19.4774 1.41267 19.471 1.41044V1.41044ZM7.68648 11.5957C6.5523 11.5957 5.61937 10.5865 5.61937 9.34869C5.61937 8.10952 6.53505 7.10034 7.68648 7.10034C8.84653 7.10034 9.77083 8.11788 9.75358 9.34869C9.75358 10.5865 8.8379 11.5957 7.68648 11.5957ZM15.3281 11.5957C14.1954 11.5957 13.261 10.5865 13.261 9.34869C13.261 8.10952 14.1767 7.10034 15.3281 7.10034C16.4882 7.10034 17.4139 8.11788 17.3952 9.34869C17.3952 10.5865 16.4882 11.5957 15.3281 11.5957Z" fill="white"/>
</svg>
